<svg width="30" height="28" viewBox="0 0 30 28" fill="none" xmlns="http://www.w3.org/2000/svg">
    <path fill-rule="evenodd" clip-rule="evenodd"
          d="M17.5024 21.3612C18.5498 21.3612 19.3998 20.5139 19.4031 19.4664V19.4664V19.4664C19.4025 18.9335 19.1897 18.4227 18.8119 18.0468L17.5524 16.7863V13.0418C17.5521 11.5699 16.9668 10.1585 15.9254 9.11845C14.884 8.07836 13.4719 7.49486 12.0001 7.49645V7.49645C8.93848 7.49811 6.4573 9.98018 6.45675 13.0418V16.7833L5.19723 18.0438C4.8191 18.4196 4.60602 18.9304 4.60498 19.4634V19.4634V19.4634C4.60829 20.5109 5.45833 21.3582 6.50577 21.3582L17.5024 21.3612Z"
          stroke="#232323" stroke-linecap="round" stroke-linejoin="round"/>
    <path d="M10.5205 24.5035H13.4787" stroke="#232323" stroke-linecap="round" stroke-linejoin="round"/>
</svg>
