<svg width="41" height="41" viewBox="0 0 41 41" fill="none" xmlns="http://www.w3.org/2000/svg">
<path d="M27.3332 3.4165V10.2498" stroke="#232323" stroke-width="1.5" stroke-linecap="round" stroke-linejoin="round"/>
<path d="M13.6667 3.4165V10.2498" stroke="#232323" stroke-width="1.5" stroke-linecap="round" stroke-linejoin="round"/>
<path d="M5.125 15.3752H35.875" stroke="#232323" stroke-width="1.5" stroke-linecap="round" stroke-linejoin="round"/>
<path fill-rule="evenodd" clip-rule="evenodd" d="M32.4583 6.8335H8.54167C6.65396 6.8335 5.125 8.36245 5.125 10.2502V32.4585C5.125 34.3462 6.65396 35.8752 8.54167 35.8752H32.4583C34.346 35.8752 35.875 34.3462 35.875 32.4585V10.2502C35.875 8.36245 34.346 6.8335 32.4583 6.8335Z" stroke="#232323" stroke-width="1.5" stroke-linecap="round" stroke-linejoin="round"/>
<path d="M11.9809 21.7454C11.7451 21.7454 11.5538 21.9368 11.5555 22.1725C11.5555 22.4083 11.7468 22.5996 11.9826 22.5996C12.2183 22.5996 12.4097 22.4083 12.4097 22.1725C12.4097 21.9368 12.2183 21.7454 11.9809 21.7454" stroke="#232323" stroke-width="1.5" stroke-linecap="round" stroke-linejoin="round"/>
<path d="M20.5224 21.7454C20.2866 21.7454 20.0953 21.9368 20.097 22.1725C20.097 22.4083 20.2883 22.5996 20.5241 22.5996C20.7598 22.5996 20.9512 22.4083 20.9512 22.1725C20.9512 21.9368 20.7598 21.7454 20.5224 21.7454" stroke="#232323" stroke-width="1.5" stroke-linecap="round" stroke-linejoin="round"/>
<path d="M29.0644 21.7454C28.8286 21.7454 28.6373 21.9368 28.639 22.1725C28.639 22.4083 28.8303 22.5996 29.0661 22.5996C29.3018 22.5996 29.4932 22.4083 29.4932 22.1725C29.4932 21.9368 29.3018 21.7454 29.0644 21.7454" stroke="#232323" stroke-width="1.5" stroke-linecap="round" stroke-linejoin="round"/>
<path d="M11.9809 28.5789C11.7451 28.5789 11.5538 28.7703 11.5555 29.006C11.5555 29.2418 11.7468 29.4331 11.9826 29.4331C12.2183 29.4331 12.4097 29.2418 12.4097 29.006C12.4097 28.7703 12.2183 28.5789 11.9809 28.5789" stroke="#232323" stroke-width="1.5" stroke-linecap="round" stroke-linejoin="round"/>
<path d="M20.5224 28.5789C20.2866 28.5789 20.0953 28.7703 20.097 29.006C20.097 29.2418 20.2883 29.4331 20.5241 29.4331C20.7598 29.4331 20.9512 29.2418 20.9512 29.006C20.9512 28.7703 20.7598 28.5789 20.5224 28.5789" stroke="#232323" stroke-width="1.5" stroke-linecap="round" stroke-linejoin="round"/>
</svg>
