<svg width="26" height="26" viewBox="0 0 26 26" fill="none" xmlns="http://www.w3.org/2000/svg">
<path fill-rule="evenodd" clip-rule="evenodd" d="M18.5024 18.3612C19.5498 18.3612 20.3998 17.5139 20.4031 16.4664V16.4664V16.4664C20.4025 15.9335 20.1897 15.4227 19.8119 15.0468L18.5524 13.7863V10.0418C18.5521 8.56992 17.9668 7.15854 16.9254 6.11845C15.884 5.07836 14.4719 4.49486 13.0001 4.49645V4.49645C9.93848 4.49811 7.4573 6.98018 7.45675 10.0418V13.7833L6.19723 15.0438C5.8191 15.4196 5.60602 15.9304 5.60498 16.4634V16.4634V16.4634C5.60829 17.5109 6.45833 18.3582 7.50577 18.3582L18.5024 18.3612Z" stroke="#232323" stroke-linecap="round" stroke-linejoin="round"/>
<path d="M11.5205 21.5035H14.4787" stroke="#232323" stroke-linecap="round" stroke-linejoin="round"/>
</svg>
