<svg width="40" height="40" viewBox="0 0 40 40" fill="none" xmlns="http://www.w3.org/2000/svg">
<g filter="url(#filter0_d_878_14513)">
<circle cx="20" cy="18" r="12" fill="white"/>
</g>
<circle cx="20" cy="18" r="11.5" stroke="white"/>
<mask id="mask0_878_14513" style="mask-type:alpha" maskUnits="userSpaceOnUse" x="9" y="7" width="22" height="22">
<circle cx="20" cy="18" r="11" fill="#C4C4C4"/>
</mask>
<g mask="url(#mask0_878_14513)">
<rect x="-2" y="10.3846" width="44" height="1.69231" fill="#E5394B"/>
<rect x="-2" y="7" width="44" height="1.69231" fill="#E5394B"/>
<rect x="-2" y="13.7694" width="44" height="1.69231" fill="#E5394B"/>
<rect x="-2" y="17.1541" width="44" height="1.69231" fill="#E5394B"/>
<rect x="-2" y="20.5383" width="44" height="1.69231" fill="#E5394B"/>
<rect x="-2" y="23.923" width="44" height="1.69231" fill="#E5394B"/>
<rect x="-2" y="27.3076" width="44" height="1.69231" fill="#E5394B"/>
<rect x="-2" y="7" width="22" height="11.8462" fill="#14599F"/>
<path d="M8.99923 7L9.1892 7.58468H9.80397L9.30661 7.94603L9.49659 8.53071L8.99923 8.16936L8.50187 8.53071L8.69185 7.94603L8.19449 7.58468H8.80926L8.99923 7Z" fill="white"/>
<path d="M8.99923 10.3846L9.1892 10.9693H9.80397L9.30661 11.3307L9.49659 11.9154L8.99923 11.554L8.50187 11.9154L8.69185 11.3307L8.19449 10.9693H8.80926L8.99923 10.3846Z" fill="white"/>
<path d="M8.99923 13.7694L9.1892 14.3541H9.80397L9.30661 14.7154L9.49659 15.3001L8.99923 14.9388L8.50187 15.3001L8.69185 14.7154L8.19449 14.3541H8.80926L8.99923 13.7694Z" fill="white"/>
<path d="M8.99923 17.1541L9.1892 17.7387H9.80397L9.30661 18.1001L9.49659 18.6848L8.99923 18.3234L8.50187 18.6848L8.69185 18.1001L8.19449 17.7387H8.80926L8.99923 17.1541Z" fill="white"/>
<path d="M12.385 7L12.5749 7.58468H13.1897L12.6924 7.94603L12.8823 8.53071L12.385 8.16936L11.8876 8.53071L12.0776 7.94603L11.5802 7.58468H12.195L12.385 7Z" fill="white"/>
<path d="M12.385 10.3846L12.5749 10.9693H13.1897L12.6924 11.3307L12.8823 11.9154L12.385 11.554L11.8876 11.9154L12.0776 11.3307L11.5802 10.9693H12.195L12.385 10.3846Z" fill="white"/>
<path d="M12.385 13.7694L12.5749 14.3541H13.1897L12.6924 14.7154L12.8823 15.3001L12.385 14.9388L11.8876 15.3001L12.0776 14.7154L11.5802 14.3541H12.195L12.385 13.7694Z" fill="white"/>
<path d="M12.385 17.1541L12.5749 17.7387H13.1897L12.6924 18.1001L12.8823 18.6848L12.385 18.3234L11.8876 18.6848L12.0776 18.1001L11.5802 17.7387H12.195L12.385 17.1541Z" fill="white"/>
<path d="M10.6931 15.4617L10.8831 16.0463H11.4978L11.0005 16.4077L11.1904 16.9924L10.6931 16.631L10.1957 16.9924L10.3857 16.4077L9.88834 16.0463H10.5031L10.6931 15.4617Z" fill="white"/>
<path d="M10.6931 12.077L10.8831 12.6617H11.4978L11.0005 13.0231L11.1904 13.6077L10.6931 13.2464L10.1957 13.6077L10.3857 13.0231L9.88834 12.6617H10.5031L10.6931 12.077Z" fill="white"/>
<path d="M10.6931 8.69238L10.8831 9.27706H11.4978L11.0005 9.63841L11.1904 10.2231L10.6931 9.86174L10.1957 10.2231L10.3857 9.63841L9.88834 9.27706H10.5031L10.6931 8.69238Z" fill="white"/>
<path d="M15.7688 7L15.9587 7.58468H16.5735L16.0761 7.94603L16.2661 8.53071L15.7688 8.16936L15.2714 8.53071L15.4614 7.94603L14.964 7.58468H15.5788L15.7688 7Z" fill="white"/>
<path d="M15.7688 10.3846L15.9587 10.9693H16.5735L16.0761 11.3307L16.2661 11.9154L15.7688 11.554L15.2714 11.9154L15.4614 11.3307L14.964 10.9693H15.5788L15.7688 10.3846Z" fill="white"/>
<path d="M15.7688 13.7694L15.9587 14.3541H16.5735L16.0761 14.7154L16.2661 15.3001L15.7688 14.9388L15.2714 15.3001L15.4614 14.7154L14.964 14.3541H15.5788L15.7688 13.7694Z" fill="white"/>
<path d="M15.7688 17.1541L15.9587 17.7387H16.5735L16.0761 18.1001L16.2661 18.6848L15.7688 18.3234L15.2714 18.6848L15.4614 18.1001L14.964 17.7387H15.5788L15.7688 17.1541Z" fill="white"/>
<path d="M14.0769 15.4617L14.2668 16.0463H14.8816L14.3843 16.4077L14.5742 16.9924L14.0769 16.631L13.5795 16.9924L13.7695 16.4077L13.2721 16.0463H13.8869L14.0769 15.4617Z" fill="white"/>
<path d="M14.0769 12.077L14.2668 12.6617H14.8816L14.3843 13.0231L14.5742 13.6077L14.0769 13.2464L13.5795 13.6077L13.7695 13.0231L13.2721 12.6617H13.8869L14.0769 12.077Z" fill="white"/>
<path d="M14.0769 8.69238L14.2668 9.27706H14.8816L14.3843 9.63841L14.5742 10.2231L14.0769 9.86174L13.5795 10.2231L13.7695 9.63841L13.2721 9.27706H13.8869L14.0769 8.69238Z" fill="white"/>
<path d="M19.1543 7L19.3442 7.58468H19.959L19.4616 7.94603L19.6516 8.53071L19.1543 8.16936L18.6569 8.53071L18.8469 7.94603L18.3495 7.58468H18.9643L19.1543 7Z" fill="white"/>
<path d="M19.1543 10.3846L19.3442 10.9693H19.959L19.4616 11.3307L19.6516 11.9154L19.1543 11.554L18.6569 11.9154L18.8469 11.3307L18.3495 10.9693H18.9643L19.1543 10.3846Z" fill="white"/>
<path d="M19.1543 13.7694L19.3442 14.3541H19.959L19.4616 14.7154L19.6516 15.3001L19.1543 14.9388L18.6569 15.3001L18.8469 14.7154L18.3495 14.3541H18.9643L19.1543 13.7694Z" fill="white"/>
<path d="M19.1543 17.1541L19.3442 17.7387H19.959L19.4616 18.1001L19.6516 18.6848L19.1543 18.3234L18.6569 18.6848L18.8469 18.1001L18.3495 17.7387H18.9643L19.1543 17.1541Z" fill="white"/>
<path d="M17.4624 15.4617L17.6523 16.0463H18.2671L17.7697 16.4077L17.9597 16.9924L17.4624 16.631L16.965 16.9924L17.155 16.4077L16.6576 16.0463H17.2724L17.4624 15.4617Z" fill="white"/>
<path d="M17.4624 12.077L17.6523 12.6617H18.2671L17.7697 13.0231L17.9597 13.6077L17.4624 13.2464L16.965 13.6077L17.155 13.0231L16.6576 12.6617H17.2724L17.4624 12.077Z" fill="white"/>
<path d="M17.4624 8.69238L17.6523 9.27706H18.2671L17.7697 9.63841L17.9597 10.2231L17.4624 9.86174L16.965 10.2231L17.155 9.63841L16.6576 9.27706H17.2724L17.4624 8.69238Z" fill="white"/>
</g>
<defs>
<filter id="filter0_d_878_14513" x="0" y="0" width="40" height="40" filterUnits="userSpaceOnUse" color-interpolation-filters="sRGB">
<feFlood flood-opacity="0" result="BackgroundImageFix"/>
<feColorMatrix in="SourceAlpha" type="matrix" values="0 0 0 0 0 0 0 0 0 0 0 0 0 0 0 0 0 0 127 0" result="hardAlpha"/>
<feOffset dy="2"/>
<feGaussianBlur stdDeviation="4"/>
<feColorMatrix type="matrix" values="0 0 0 0 0 0 0 0 0 0 0 0 0 0 0 0 0 0 0.25 0"/>
<feBlend mode="normal" in2="BackgroundImageFix" result="effect1_dropShadow_878_14513"/>
<feBlend mode="normal" in="SourceGraphic" in2="effect1_dropShadow_878_14513" result="shape"/>
</filter>
</defs>
</svg>
